<svg width="979" height="176" viewBox="0 0 979 176" fill="none" xmlns="http://www.w3.org/2000/svg">
<g clip-path="url(#clip0_580_22)">
<rect width="979" height="176" fill="white"/>
<path fill-rule="evenodd" clip-rule="evenodd" d="M252.902 61.5004C258.635 61.5004 264.235 62.6671 269.702 65.0004C275.168 67.3337 279.668 71.0337 283.202 76.1004C286.735 81.1004 288.502 87.7004 288.502 95.9004V146H258.002V100.9C258.002 95.0337 256.602 90.6337 253.802 87.7004C251.002 84.7004 247.335 83.2004 242.802 83.2004C239.802 83.2004 236.968 84.0004 234.302 85.6004C231.702 87.1337 229.568 89.3337 227.902 92.2004C226.302 95.0004 225.502 98.2337 225.502 101.9V146H195.102V63.9004H225.502V76.0004C226.302 73.8004 227.968 71.6004 230.502 69.4004C233.102 67.1337 236.335 65.2671 240.202 63.8004C244.135 62.2671 248.368 61.5004 252.902 61.5004ZM316.167 146V63.9004H346.567V146H316.167ZM489.411 61.5004C495.611 61.5004 501.078 62.8004 505.811 65.4004C510.544 67.9337 514.244 71.8671 516.911 77.2004C519.644 82.5337 521.011 89.4004 521.011 97.8004V146H491.111V102.4C491.111 96.6671 490.244 92.0337 488.511 88.5004C486.778 84.9671 483.344 83.2004 478.211 83.2004C475.144 83.2004 472.444 84.0004 470.111 85.6004C467.778 87.2004 465.978 89.4337 464.711 92.3004C463.444 95.1004 462.811 98.4671 462.811 102.4V146H434.911V102.4C434.911 96.6671 433.944 92.0337 432.011 88.5004C430.144 84.9671 426.811 83.2004 422.011 83.2004C418.944 83.2004 416.244 84.0004 413.911 85.6004C411.578 87.1337 409.778 89.3337 408.511 92.2004C407.311 95.0004 406.711 98.4004 406.711 102.4V146H376.511V63.9004H406.711V75.6004C407.511 73.5337 409.244 71.4337 411.911 69.3004C414.644 67.1004 418.011 65.2671 422.011 63.8004C426.011 62.2671 430.244 61.5004 434.711 61.5004C439.578 61.5004 443.644 62.2337 446.911 63.7004C450.178 65.1004 452.844 67.0004 454.911 69.4004C457.044 71.8004 458.744 74.4004 460.011 77.2004C460.944 74.8004 462.778 72.4004 465.511 70.0004C468.311 67.5337 471.778 65.5004 475.911 63.9004C480.111 62.3004 484.611 61.5004 489.411 61.5004ZM611.32 146V132.7C610.72 134.034 609.187 135.967 606.72 138.5C604.32 141.034 601.12 143.334 597.12 145.4C593.12 147.4 588.454 148.4 583.12 148.4C575.12 148.4 568.12 146.467 562.12 142.6C556.12 138.667 551.454 133.434 548.12 126.9C544.787 120.3 543.12 113 543.12 105C543.12 97.0004 544.787 89.7337 548.12 83.2004C551.454 76.6004 556.12 71.3337 562.12 67.4004C568.12 63.4671 575.12 61.5004 583.12 61.5004C588.254 61.5004 592.754 62.3337 596.62 64.0004C600.487 65.6004 603.62 67.5337 606.02 69.8004C608.42 72.0004 610.087 74.0337 611.02 75.9004V63.9004H641.22V146H611.32ZM572.92 105C572.92 108.734 573.787 112.1 575.52 115.1C577.254 118.034 579.554 120.334 582.42 122C585.354 123.667 588.587 124.5 592.12 124.5C595.787 124.5 599.02 123.667 601.82 122C604.62 120.334 606.82 118.034 608.42 115.1C610.087 112.1 610.92 108.734 610.92 105C610.92 101.267 610.087 97.9337 608.42 95.0004C606.82 92.0004 604.62 89.6671 601.82 88.0004C599.02 86.2671 595.787 85.4004 592.12 85.4004C588.587 85.4004 585.354 86.2671 582.42 88.0004C579.554 89.6671 577.254 92.0004 575.52 95.0004C573.787 97.9337 572.92 101.267 572.92 105ZM699.911 146H669.411V8.40039H699.911V146ZM729.511 146V63.9004H759.911V146H729.511ZM787.655 63.9004H868.955L827.955 124.8H865.755V146H781.055L821.955 85.0004H787.655V63.9004ZM912.898 111.4C913.098 114.334 914.032 116.934 915.698 119.2C917.365 121.467 919.665 123.267 922.598 124.6C925.598 125.867 929.132 126.5 933.198 126.5C937.065 126.5 940.532 126.1 943.598 125.3C946.732 124.5 949.432 123.5 951.698 122.3C954.032 121.1 955.832 119.867 957.098 118.6L968.898 137.4C967.232 139.2 964.865 140.967 961.798 142.7C958.798 144.367 954.832 145.734 949.898 146.8C944.965 147.867 938.732 148.4 931.198 148.4C922.132 148.4 914.065 146.7 906.998 143.3C899.932 139.9 894.365 134.9 890.298 128.3C886.232 121.7 884.198 113.634 884.198 104.1C884.198 96.1004 885.932 88.9004 889.398 82.5004C892.932 76.0337 898.032 70.9337 904.698 67.2004C911.365 63.4004 919.398 61.5004 928.798 61.5004C937.732 61.5004 945.465 63.1337 951.998 66.4004C958.598 69.6671 963.665 74.5337 967.198 81.0004C970.798 87.4004 972.598 95.4004 972.598 105C972.598 105.534 972.565 106.6 972.498 108.2C972.498 109.8 972.432 110.867 972.298 111.4H912.898ZM943.998 95.5004C943.932 93.3671 943.365 91.2671 942.298 89.2004C941.232 87.0671 939.632 85.3337 937.498 84.0004C935.365 82.6004 932.632 81.9004 929.298 81.9004C925.965 81.9004 923.132 82.5671 920.798 83.9004C918.532 85.1671 916.798 86.8337 915.598 88.9004C914.398 90.9671 913.732 93.1671 913.598 95.5004H943.998Z" fill="#202534"/>
<path d="M319.047 19.0886C319.047 15.2246 315.913 12.0913 312.048 12.0913C308.183 12.0913 305.051 15.2246 305.051 19.0886C305.051 22.9554 308.183 26.0873 312.048 26.0873C315.913 26.0873 319.047 22.9554 319.047 19.0886ZM346.954 13.4582C343.09 13.4582 339.957 16.5915 339.957 20.4555C339.957 24.3222 343.09 27.4528 346.954 27.4528C350.818 27.4528 353.952 24.3222 353.952 20.4555C353.952 16.5915 350.819 13.4582 346.954 13.4582ZM340.598 28.2449C340.112 27.6453 339.423 26.9511 338.632 26.2232C336.522 23.4887 333.222 21.7196 329.502 21.7196C326.19 21.7196 323.214 23.1216 321.11 25.3559C319.915 26.3957 318.852 27.4107 318.176 28.2456L317.723 28.7983C315.612 31.3727 312.984 34.5756 313.003 40.0108C313.022 45.0581 317.132 49.1671 322.165 49.1671C323.562 49.1701 324.94 48.8504 326.193 48.2329C327.446 47.6155 328.539 46.7169 329.387 45.6074C330.236 46.7173 331.329 47.6161 332.582 48.2336C333.835 48.8511 335.214 49.1706 336.611 49.1671C341.642 49.1671 345.752 45.0588 345.771 40.0108C345.79 34.5756 343.162 31.3727 341.051 28.7983L340.598 28.2449Z" fill="#202534"/>
<path d="M329.984 17.256C334.243 17.256 337.695 13.8038 337.695 9.54522C337.695 5.28669 334.243 1.83447 329.984 1.83447C325.726 1.83447 322.273 5.28669 322.273 9.54522C322.273 13.8038 325.726 17.256 329.984 17.256Z" fill="#202534"/>
<path d="M732.047 19.0886C732.047 15.2246 728.913 12.0913 725.048 12.0913C721.183 12.0913 718.051 15.2246 718.051 19.0886C718.051 22.9554 721.183 26.0873 725.048 26.0873C728.913 26.0873 732.047 22.9554 732.047 19.0886ZM759.954 13.4582C756.09 13.4582 752.957 16.5915 752.957 20.4555C752.957 24.3222 756.09 27.4528 759.954 27.4528C763.818 27.4528 766.952 24.3222 766.952 20.4555C766.952 16.5915 763.819 13.4582 759.954 13.4582ZM753.598 28.2449C753.112 27.6453 752.423 26.9511 751.632 26.2232C749.522 23.4887 746.222 21.7196 742.502 21.7196C739.19 21.7196 736.214 23.1216 734.11 25.3559C732.915 26.3957 731.852 27.4107 731.176 28.2456L730.723 28.7983C728.612 31.3727 725.984 34.5756 726.003 40.0108C726.022 45.0581 730.132 49.1671 735.165 49.1671C736.562 49.1701 737.94 48.8504 739.193 48.2329C740.446 47.6155 741.539 46.7169 742.387 45.6074C743.236 46.7173 744.329 47.6161 745.582 48.2336C746.835 48.8511 748.214 49.1706 749.611 49.1671C754.642 49.1671 758.752 45.0588 758.771 40.0108C758.79 34.5756 756.162 31.3727 754.051 28.7983L753.598 28.2449Z" fill="#202534"/>
<path d="M742.984 17.256C747.243 17.256 750.695 13.8038 750.695 9.54522C750.695 5.28669 747.243 1.83447 742.984 1.83447C738.726 1.83447 735.273 5.28669 735.273 9.54522C735.273 13.8038 738.726 17.256 742.984 17.256Z" fill="#202534"/>
<path d="M63.7323 29.7158C67.0148 21.5054 69.5357 11.6762 74.4517 9.17727C77.5889 7.124 110.621 8.38064 110.621 8.38064C110.621 8.38064 116.032 7.86026 117.803 10.959C128.198 29.1543 168.395 129.46 183.573 166.625C184.233 168.842 184.666 172.6 180.614 174.472C178.206 175.585 156.823 175.201 138.432 175.176C137.772 175.03 135.624 175.611 134.215 173.045C130.658 166.566 126.42 149.095 122.241 148.876C118.061 148.656 72.8039 147.663 68.3429 148.968C63.8824 150.272 59.6905 163.58 59.6905 163.58C59.6905 163.58 56.7493 174.632 52.3455 175.227C47.9412 175.822 27.4529 175.621 17.1963 175.503C6.93976 175.385 4.9233 172.254 6.45814 167.036C7.99298 161.819 15.717 149.53 30.0606 141.054C44.4044 132.579 62.3008 126.585 77.0293 128.117C91.7573 129.65 105.95 136.041 117.064 133.465C128.178 130.889 131.322 119.418 136.26 109.329C136.26 109.329 141.215 105.771 141.628 101.201C142.04 96.6299 138.977 92.8328 121.415 88.4944C117.63 86.9324 111.478 85.3652 109.587 81.0456C105.349 71.3601 97.7268 52.9072 85.2522 48.4271C83.2422 47.7053 81.099 46.8287 78.82 46.188C71.4574 44.1182 65.0532 43.4739 61.8082 42.4349C58.5632 41.3962 60.4502 37.926 63.7323 29.7158Z" fill="#202534"/>
<path d="M79.9805 57.7729C76.7459 51.4138 67.4476 49.3317 58.5377 49.4207C31.5646 49.6893 9.54504 74.7077 7.16588 92.8328C4.78667 110.958 17.9834 115.334 17.9834 115.334C17.9834 115.334 29.9573 118.834 37.3839 110.762C44.8108 102.69 46.5453 85.1026 49.134 79.2816C51.7228 73.461 56.921 67.5315 66.6133 64.5707C76.1148 61.6686 78.973 61.9133 79.9805 57.7729Z" fill="#202534"/>
</g>
<defs>
<clipPath id="clip0_580_22">
<rect width="979" height="176" fill="white"/>
</clipPath>
</defs>
</svg>
